<svg xmlns="http://www.w3.org/2000/svg" xmlns:xlink="http://www.w3.org/1999/xlink" width="500" zoomAndPan="magnify" viewBox="0 0 375 89.999999" height="120" preserveAspectRatio="xMidYMid meet" version="1.0"><defs><clipPath id="a6139f9c60"><path d="M 45.121094 0 L 112 0 L 112 43 L 45.121094 43 Z M 45.121094 0 " clip-rule="nonzero"/></clipPath><clipPath id="9a7ba87f98"><path d="M 45.121094 47 L 112 47 L 112 90 L 45.121094 90 Z M 45.121094 47 " clip-rule="nonzero"/></clipPath><clipPath id="392ab24949"><path d="M 0 20.355469 L 10.617188 20.355469 L 10.617188 30.972656 L 0 30.972656 Z M 0 20.355469 " clip-rule="nonzero"/></clipPath><clipPath id="d485b3b4ca"><path d="M 5.308594 20.355469 C 4.605469 20.355469 3.925781 20.492188 3.277344 20.761719 C 2.625 21.03125 2.050781 21.414062 1.554688 21.910156 C 1.058594 22.410156 0.671875 22.984375 0.402344 23.632812 C 0.132812 24.285156 0 24.960938 0 25.664062 C 0 26.367188 0.132812 27.046875 0.402344 27.695312 C 0.671875 28.347656 1.058594 28.921875 1.554688 29.417969 C 2.050781 29.917969 2.625 30.300781 3.277344 30.570312 C 3.925781 30.839844 4.605469 30.972656 5.308594 30.972656 C 6.011719 30.972656 6.691406 30.839844 7.339844 30.570312 C 7.992188 30.300781 8.566406 29.917969 9.0625 29.417969 C 9.558594 28.921875 9.945312 28.347656 10.214844 27.695312 C 10.484375 27.046875 10.617188 26.367188 10.617188 25.664062 C 10.617188 24.960938 10.484375 24.285156 10.214844 23.632812 C 9.945312 22.984375 9.558594 22.410156 9.0625 21.910156 C 8.566406 21.414062 7.992188 21.03125 7.339844 20.761719 C 6.691406 20.492188 6.011719 20.355469 5.308594 20.355469 Z M 5.308594 20.355469 " clip-rule="nonzero"/></clipPath><clipPath id="7e52706af8"><path d="M 0 60.078125 L 10.617188 60.078125 L 10.617188 70.695312 L 0 70.695312 Z M 0 60.078125 " clip-rule="nonzero"/></clipPath><clipPath id="b7baa5ce6d"><path d="M 5.308594 60.078125 C 4.605469 60.078125 3.925781 60.210938 3.277344 60.480469 C 2.625 60.75 2.050781 61.136719 1.554688 61.632812 C 1.058594 62.128906 0.671875 62.703125 0.402344 63.355469 C 0.132812 64.003906 0 64.683594 0 65.386719 C 0 66.089844 0.132812 66.769531 0.402344 67.417969 C 0.671875 68.070312 1.058594 68.644531 1.554688 69.140625 C 2.050781 69.636719 2.625 70.023438 3.277344 70.292969 C 3.925781 70.5625 4.605469 70.695312 5.308594 70.695312 C 6.011719 70.695312 6.691406 70.5625 7.339844 70.292969 C 7.992188 70.023438 8.566406 69.636719 9.0625 69.140625 C 9.558594 68.644531 9.945312 68.070312 10.214844 67.417969 C 10.484375 66.769531 10.617188 66.089844 10.617188 65.386719 C 10.617188 64.683594 10.484375 64.003906 10.214844 63.355469 C 9.945312 62.703125 9.558594 62.128906 9.0625 61.632812 C 8.566406 61.136719 7.992188 60.75 7.339844 60.480469 C 6.691406 60.210938 6.011719 60.078125 5.308594 60.078125 Z M 5.308594 60.078125 " clip-rule="nonzero"/></clipPath><clipPath id="067fdebba1"><path d="M 37.683594 60.078125 L 48.300781 60.078125 L 48.300781 70.695312 L 37.683594 70.695312 Z M 37.683594 60.078125 " clip-rule="nonzero"/></clipPath><clipPath id="0a03aa8e76"><path d="M 42.992188 60.078125 C 42.289062 60.078125 41.613281 60.210938 40.960938 60.480469 C 40.3125 60.75 39.738281 61.136719 39.238281 61.632812 C 38.742188 62.128906 38.359375 62.703125 38.089844 63.355469 C 37.820312 64.003906 37.683594 64.683594 37.683594 65.386719 C 37.683594 66.089844 37.820312 66.769531 38.089844 67.417969 C 38.359375 68.070312 38.742188 68.644531 39.238281 69.140625 C 39.738281 69.636719 40.3125 70.023438 40.960938 70.292969 C 41.613281 70.5625 42.289062 70.695312 42.992188 70.695312 C 43.695312 70.695312 44.375 70.5625 45.023438 70.292969 C 45.675781 70.023438 46.25 69.636719 46.746094 69.140625 C 47.246094 68.644531 47.628906 68.070312 47.898438 67.417969 C 48.167969 66.769531 48.300781 66.089844 48.300781 65.386719 C 48.300781 64.683594 48.167969 64.003906 47.898438 63.355469 C 47.628906 62.703125 47.246094 62.128906 46.746094 61.632812 C 46.25 61.136719 45.675781 60.75 45.023438 60.480469 C 44.375 60.210938 43.695312 60.078125 42.992188 60.078125 Z M 42.992188 60.078125 " clip-rule="nonzero"/></clipPath></defs><g clip-path="url(#a6139f9c60)"><path fill="#ffffff" d="M 74.65625 42.875 L 111.070312 42.875 L 79.9375 -3.679688 L 43.523438 -3.679688 Z M 74.65625 42.875 " fill-opacity="1" fill-rule="nonzero"/></g><path fill="#ffffff" d="M 135.023438 42.875 L 171.441406 42.875 L 140.308594 -3.679688 L 103.890625 -3.679688 Z M 135.023438 42.875 " fill-opacity="1" fill-rule="nonzero"/><path fill="#ffffff" d="M 195.398438 42.875 L 231.808594 42.875 L 200.671875 -3.679688 L 164.261719 -3.679688 Z M 195.398438 42.875 " fill-opacity="1" fill-rule="nonzero"/><path fill="#ffffff" d="M 255.761719 42.875 L 292.171875 42.875 L 261.039062 -3.679688 L 224.628906 -3.679688 Z M 255.761719 42.875 " fill-opacity="1" fill-rule="nonzero"/><g clip-path="url(#9a7ba87f98)"><path fill="#ffffff" d="M 74.65625 47.125 L 111.070312 47.125 L 79.9375 93.683594 L 43.523438 93.683594 Z M 74.65625 47.125 " fill-opacity="1" fill-rule="nonzero"/></g><path fill="#ffffff" d="M 135.023438 47.125 L 171.441406 47.125 L 140.308594 93.683594 L 103.890625 93.683594 Z M 135.023438 47.125 " fill-opacity="1" fill-rule="nonzero"/><path fill="#ffffff" d="M 195.398438 47.125 L 231.808594 47.125 L 200.671875 93.683594 L 164.261719 93.683594 Z M 195.398438 47.125 " fill-opacity="1" fill-rule="nonzero"/><path fill="#ffffff" d="M 255.761719 47.125 L 292.171875 47.125 L 261.039062 93.683594 L 224.628906 93.683594 Z M 255.761719 47.125 " fill-opacity="1" fill-rule="nonzero"/><path fill="#ffffff" d="M 316.128906 42.875 L 352.546875 42.875 L 321.414062 -3.679688 L 284.992188 -3.679688 Z M 316.128906 42.875 " fill-opacity="1" fill-rule="nonzero"/><path fill="#ffffff" d="M 316.128906 47.125 L 352.546875 47.125 L 321.414062 93.683594 L 284.992188 93.683594 Z M 316.128906 47.125 " fill-opacity="1" fill-rule="nonzero"/><path fill="#ffffff" d="M 376.589844 -3.679688 L 345.367188 -3.679688 L 376.5 42.875 L 376.589844 42.875 Z M 376.589844 -3.679688 " fill-opacity="1" fill-rule="nonzero"/><path fill="#ffffff" d="M 376.589844 47.125 L 376.5 47.125 L 345.367188 93.683594 L 376.589844 93.683594 Z M 376.589844 47.125 " fill-opacity="1" fill-rule="nonzero"/><g clip-path="url(#392ab24949)"><g clip-path="url(#d485b3b4ca)"><path fill="#ffffff" d="M 0 20.355469 L 10.617188 20.355469 L 10.617188 30.972656 L 0 30.972656 Z M 0 20.355469 " fill-opacity="1" fill-rule="nonzero"/></g></g><g clip-path="url(#7e52706af8)"><g clip-path="url(#b7baa5ce6d)"><path fill="#ffffff" d="M 0 60.078125 L 10.617188 60.078125 L 10.617188 70.695312 L 0 70.695312 Z M 0 60.078125 " fill-opacity="1" fill-rule="nonzero"/></g></g><g clip-path="url(#067fdebba1)"><g clip-path="url(#0a03aa8e76)"><path fill="#ffffff" d="M 37.683594 60.078125 L 48.300781 60.078125 L 48.300781 70.695312 L 37.683594 70.695312 Z M 37.683594 60.078125 " fill-opacity="1" fill-rule="nonzero"/></g></g></svg>