<svg xmlns="http://www.w3.org/2000/svg" xmlns:xlink="http://www.w3.org/1999/xlink" width="100" zoomAndPan="magnify" viewBox="0 0 75 74.999997" height="100" preserveAspectRatio="xMidYMid meet" version="1.0"><defs><clipPath id="e6d69a02ae"><path d="M 2.003906 19.363281 L 73.253906 19.363281 L 73.253906 55.363281 L 2.003906 55.363281 Z M 2.003906 19.363281 " clip-rule="nonzero"/></clipPath></defs><g clip-path="url(#e6d69a02ae)"><path fill="#ffffff" d="M 73.046875 43.542969 C 72.882812 42.804688 72.414062 42.167969 71.757812 41.789062 C 71.101562 41.40625 70.3125 41.320312 69.585938 41.542969 C 68.242188 42 67.453125 43.382812 67.753906 44.761719 C 68.171875 46.824219 66.445312 48.699219 64.625 49.414062 C 63.003906 49.988281 61.234375 49.996094 59.609375 49.433594 C 58.914062 49.207031 58.238281 48.921875 57.589844 48.585938 C 59.449219 46.335938 60.488281 43.523438 60.53125 40.613281 C 60.53125 35.03125 56.949219 32.113281 53.410156 32.113281 C 49.871094 32.113281 46.289062 35.03125 46.289062 40.613281 C 46.34375 43.613281 47.445312 46.503906 49.40625 48.785156 C 47.085938 49.738281 44.496094 49.828125 42.117188 49.035156 C 41.796875 48.925781 41.484375 48.800781 41.179688 48.652344 C 43.074219 46.394531 44.136719 43.554688 44.183594 40.609375 C 44.183594 35.03125 40.601562 32.113281 37.066406 32.113281 C 33.527344 32.113281 29.945312 35.03125 29.945312 40.609375 C 29.96875 43.5625 30.996094 46.421875 32.859375 48.722656 C 32.527344 48.917969 32.183594 49.09375 31.828125 49.25 C 30.960938 49.539062 30.03125 49.570312 29.144531 49.34375 C 27.492188 48.808594 26.375 47.273438 26.386719 45.542969 L 26.386719 29.65625 C 26.386719 24.171875 22.011719 19.558594 16.632812 19.371094 C 16.519531 19.363281 16.390625 19.363281 16.28125 19.363281 C 10.691406 19.371094 6.152344 23.871094 6.136719 29.433594 L 6.136719 33.835938 L 5.070312 33.835938 C 3.375 33.859375 2.015625 35.230469 2.015625 36.914062 C 2.015625 38.597656 3.375 39.96875 5.070312 39.992188 L 6.136719 39.992188 L 6.136719 52.027344 C 6.15625 53.855469 7.652344 55.324219 9.492188 55.324219 C 11.328125 55.324219 12.824219 53.855469 12.847656 52.027344 L 12.847656 39.992188 L 13.914062 39.992188 C 15.609375 39.96875 16.96875 38.597656 16.96875 36.914062 C 16.96875 35.230469 15.609375 33.859375 13.914062 33.835938 L 12.847656 33.835938 L 12.847656 30.09375 C 12.8125 28.265625 14.203125 26.726562 16.03125 26.566406 C 16.078125 26.5625 16.125 26.566406 16.171875 26.566406 L 16.261719 26.566406 C 18.140625 26.566406 19.667969 28.078125 19.671875 29.949219 L 19.671875 45.074219 C 19.671875 50.554688 24.046875 55.167969 29.425781 55.359375 C 29.550781 55.363281 29.675781 55.363281 29.800781 55.363281 C 32.5625 55.367188 35.238281 54.390625 37.34375 52.609375 C 39.980469 54.1875 43.023438 54.976562 46.097656 54.875 C 49.066406 54.761719 51.703125 53.957031 53.609375 52.59375 C 58.964844 56.273438 67.402344 56.414062 71.464844 50.769531 C 73.011719 48.695312 73.589844 46.0625 73.046875 43.542969 Z M 36.992188 37.546875 C 37.808594 37.546875 38.632812 38.617188 38.632812 40.660156 C 38.574219 42.351562 37.984375 43.972656 36.949219 45.285156 C 35.957031 43.953125 35.402344 42.335938 35.351562 40.660156 C 35.351562 38.617188 36.179688 37.546875 36.992188 37.546875 Z M 53.386719 37.546875 C 54.203125 37.546875 55.027344 38.597656 55.027344 40.609375 C 54.988281 42.253906 54.402344 43.839844 53.363281 45.105469 C 52.351562 43.828125 51.78125 42.246094 51.75 40.609375 C 51.75 38.597656 52.574219 37.546875 53.386719 37.546875 Z M 53.386719 37.546875 " fill-opacity="1" fill-rule="nonzero"/></g></svg>