<svg xmlns="http://www.w3.org/2000/svg" xmlns:xlink="http://www.w3.org/1999/xlink" width="100" zoomAndPan="magnify" viewBox="0 0 75 74.999997" height="100" preserveAspectRatio="xMidYMid meet" version="1.0"><defs><g/><clipPath id="7535f7a183"><path d="M 2.136719 38 L 9 38 L 9 46 L 2.136719 46 Z M 2.136719 38 " clip-rule="nonzero"/></clipPath><clipPath id="66d7206269"><path d="M 2.136719 30 L 8 30 L 8 39 L 2.136719 39 Z M 2.136719 30 " clip-rule="nonzero"/></clipPath><clipPath id="456d925cbe"><path d="M 7 6.132812 L 65 6.132812 L 65 67.632812 L 7 67.632812 Z M 7 6.132812 " clip-rule="nonzero"/></clipPath><clipPath id="b28a94e4ee"><path d="M 64 30 L 69.636719 30 L 69.636719 39 L 64 39 Z M 64 30 " clip-rule="nonzero"/></clipPath></defs><path fill="#ffffff" d="M 26.300781 60.269531 C 25.855469 59.929688 25.453125 59.707031 25.011719 59.546875 C 24.585938 59.386719 24.125 59.304688 23.660156 59.285156 C 22.734375 59.246094 21.707031 59.425781 20.722656 59.648438 C 19.734375 59.886719 18.808594 60.171875 18.125 60.410156 C 17.441406 60.632812 16.976562 60.816406 16.976562 60.816406 C 16.976562 60.816406 17.417969 61.078125 18.125 61.378906 C 18.828125 61.679688 19.816406 62.023438 20.882812 62.203125 C 21.949219 62.386719 23.117188 62.40625 24.125 62.125 C 25.152344 61.882812 26.015625 61.257812 26.300781 60.269531 Z M 26.300781 60.269531 " fill-opacity="1" fill-rule="nonzero"/><path fill="#ffffff" d="M 23.300781 55.941406 C 23.683594 56.808594 24.226562 57.632812 24.949219 58.175781 C 25.3125 58.4375 25.714844 58.660156 26.160156 58.742188 C 26.582031 58.820312 27.0625 58.800781 27.507812 58.621094 C 27.527344 57.59375 27.246094 56.789062 26.824219 56.082031 C 26.378906 55.378906 25.753906 54.773438 25.109375 54.25 C 24.46875 53.726562 23.800781 53.285156 23.320312 52.980469 C 22.816406 52.679688 22.472656 52.5 22.472656 52.5 C 22.472656 52.5 22.472656 52.601562 22.492188 52.800781 C 22.515625 52.980469 22.554688 53.265625 22.59375 53.585938 C 22.714844 54.210938 22.917969 55.078125 23.300781 55.941406 Z M 23.300781 55.941406 " fill-opacity="1" fill-rule="nonzero"/><path fill="#ffffff" d="M 16.273438 58.21875 C 17.257812 58.175781 18.125 57.792969 18.730469 56.96875 C 18.246094 56.101562 17.5 55.621094 16.613281 55.359375 C 15.726562 55.097656 14.703125 55.015625 13.695312 54.976562 C 12.6875 54.957031 11.679688 54.976562 10.9375 54.976562 C 10.171875 54.996094 9.6875 54.996094 9.6875 54.996094 C 9.6875 54.996094 9.789062 55.097656 9.949219 55.277344 C 10.132812 55.4375 10.371094 55.679688 10.695312 55.941406 C 11.339844 56.464844 12.226562 57.070312 13.230469 57.53125 C 14.199219 57.976562 15.285156 58.257812 16.273438 58.21875 Z M 16.273438 58.21875 " fill-opacity="1" fill-rule="nonzero"/><path fill="#ffffff" d="M 18.125 54.351562 C 18.6875 55.054688 19.453125 55.519531 20.417969 55.480469 C 20.824219 54.53125 20.742188 53.648438 20.480469 52.820312 C 20.21875 51.996094 19.734375 51.25 19.273438 50.585938 C 18.789062 49.921875 18.304688 49.378906 17.941406 48.976562 C 17.761719 48.773438 17.621094 48.613281 17.519531 48.492188 C 17.417969 48.371094 17.359375 48.3125 17.359375 48.3125 C 17.359375 48.3125 17.320312 48.410156 17.277344 48.59375 C 17.238281 48.773438 17.179688 49.035156 17.117188 49.359375 C 17.015625 50.003906 16.976562 50.886719 17.097656 51.792969 C 17.238281 52.699219 17.582031 53.648438 18.125 54.351562 Z M 18.125 54.351562 " fill-opacity="1" fill-rule="nonzero"/><path fill="#ffffff" d="M 6.144531 47.324219 C 5.441406 47.101562 4.996094 46.980469 4.996094 46.980469 C 4.996094 46.980469 5.035156 47.101562 5.117188 47.285156 C 5.21875 47.464844 5.359375 47.746094 5.519531 48.070312 C 5.703125 48.390625 5.921875 48.753906 6.164062 49.15625 C 6.285156 49.359375 6.425781 49.558594 6.566406 49.742188 L 6.6875 49.902344 L 6.828125 50.082031 C 6.929688 50.203125 7.03125 50.324219 7.128906 50.445312 C 7.9375 51.410156 8.941406 52.15625 9.929688 52.457031 C 10.917969 52.78125 11.863281 52.679688 12.6875 52.054688 C 12.464844 51.070312 11.902344 50.40625 11.15625 49.820312 C 10.976562 49.679688 10.773438 49.539062 10.574219 49.398438 C 10.371094 49.257812 10.152344 49.136719 9.929688 48.996094 C 9.707031 48.855469 9.488281 48.734375 9.246094 48.59375 C 9.023438 48.472656 8.800781 48.371094 8.582031 48.25 C 7.734375 47.867188 6.828125 47.546875 6.144531 47.324219 Z M 6.144531 47.324219 " fill-opacity="1" fill-rule="nonzero"/><path fill="#ffffff" d="M 12.949219 49.054688 C 13.210938 49.902344 13.816406 50.585938 14.742188 50.808594 C 15.386719 50.023438 15.585938 49.15625 15.648438 48.332031 C 15.6875 47.503906 15.585938 46.742188 15.507812 46.097656 C 15.488281 45.8125 15.367188 45.351562 15.265625 44.988281 C 15.164062 44.605469 15.042969 44.285156 14.941406 44.003906 C 14.84375 43.71875 14.742188 43.5 14.679688 43.335938 C 14.621094 43.175781 14.582031 43.074219 14.582031 43.074219 C 14.582031 43.074219 14.519531 43.175781 14.398438 43.335938 C 14.300781 43.5 14.15625 43.742188 13.996094 44.042969 C 13.695312 44.625 13.3125 45.453125 13.070312 46.359375 C 13.011719 46.578125 12.949219 46.820312 12.910156 47.0625 C 12.871094 47.285156 12.828125 47.503906 12.808594 47.726562 C 12.789062 47.949219 12.808594 48.171875 12.828125 48.410156 C 12.828125 48.632812 12.871094 48.855469 12.949219 49.054688 Z M 12.949219 49.054688 " fill-opacity="1" fill-rule="nonzero"/><g clip-path="url(#7535f7a183)"><path fill="#ffffff" d="M 5.078125 43.882812 C 5.238281 44.082031 5.417969 44.242188 5.621094 44.40625 C 5.800781 44.566406 6.003906 44.707031 6.203125 44.847656 C 7.011719 45.371094 7.917969 45.59375 8.882812 45.289062 C 8.964844 44.808594 8.921875 44.363281 8.800781 43.941406 C 8.742188 43.742188 8.640625 43.539062 8.539062 43.335938 C 8.441406 43.136719 8.296875 42.953125 8.179688 42.773438 C 7.65625 42.050781 6.847656 41.40625 6.023438 40.859375 C 5.238281 40.296875 4.390625 39.8125 3.75 39.453125 C 3.105469 39.109375 2.679688 38.886719 2.679688 38.886719 C 2.679688 38.886719 2.699219 39.007812 2.742188 39.230469 C 2.800781 39.429688 2.882812 39.734375 3.003906 40.097656 C 3.246094 40.800781 3.585938 41.765625 4.152344 42.632812 C 4.433594 43.074219 4.734375 43.5 5.078125 43.882812 Z M 5.078125 43.882812 " fill-opacity="1" fill-rule="nonzero"/></g><path fill="#ffffff" d="M 10.351562 43.519531 C 10.535156 43.902344 10.816406 44.242188 11.21875 44.503906 C 12.105469 44.003906 12.609375 43.238281 12.871094 42.410156 C 12.929688 42.210938 12.988281 41.988281 13.03125 41.789062 C 13.050781 41.6875 13.070312 41.566406 13.070312 41.464844 C 13.089844 41.363281 13.109375 41.242188 13.109375 41.144531 C 13.171875 40.699219 13.171875 40.277344 13.171875 39.855469 C 13.109375 39.027344 13.070312 38.222656 12.949219 37.660156 C 12.910156 37.378906 12.847656 37.136719 12.808594 36.976562 C 12.789062 36.8125 12.769531 36.714844 12.769531 36.714844 C 12.769531 36.714844 12.6875 36.792969 12.546875 36.933594 C 12.40625 37.074219 12.226562 37.277344 12.023438 37.519531 C 11.601562 38.023438 11.097656 38.746094 10.675781 39.59375 C 10.273438 40.4375 10.011719 41.363281 10.03125 42.269531 C 10.03125 42.492188 10.070312 42.714844 10.109375 42.914062 C 10.191406 43.117188 10.25 43.316406 10.351562 43.519531 Z M 10.351562 43.519531 " fill-opacity="1" fill-rule="nonzero"/><g clip-path="url(#66d7206269)"><path fill="#ffffff" d="M 3.367188 35.847656 C 3.488281 36.070312 3.628906 36.289062 3.769531 36.492188 C 3.929688 36.691406 4.089844 36.875 4.273438 37.035156 C 4.976562 37.71875 5.800781 38.101562 6.828125 38 C 7.011719 37.539062 7.050781 37.097656 7.011719 36.671875 C 6.988281 36.453125 6.929688 36.25 6.867188 36.046875 C 6.808594 35.847656 6.726562 35.625 6.648438 35.425781 C 6.464844 35.023438 6.203125 34.621094 5.902344 34.214844 C 5.742188 34.015625 5.601562 33.832031 5.441406 33.632812 C 5.277344 33.453125 5.117188 33.25 4.957031 33.070312 C 4.292969 32.34375 3.566406 31.660156 3.042969 31.175781 C 2.519531 30.671875 2.15625 30.371094 2.15625 30.371094 C 2.15625 30.371094 2.136719 30.875 2.199219 31.640625 C 2.21875 32.023438 2.296875 32.464844 2.378906 32.929688 C 2.417969 33.167969 2.480469 33.410156 2.539062 33.652344 C 2.601562 33.894531 2.660156 34.15625 2.761719 34.398438 C 2.902344 34.902344 3.125 35.382812 3.367188 35.847656 Z M 3.367188 35.847656 " fill-opacity="1" fill-rule="nonzero"/></g><path fill="#ffffff" d="M 9.246094 37.457031 C 10.210938 37.117188 10.855469 36.492188 11.277344 35.746094 C 11.378906 35.566406 11.480469 35.363281 11.558594 35.183594 C 11.660156 34.980469 11.742188 34.78125 11.800781 34.578125 C 11.941406 34.175781 12.042969 33.773438 12.105469 33.371094 C 12.183594 32.96875 12.265625 32.585938 12.304688 32.222656 C 12.324219 32.042969 12.347656 31.878906 12.347656 31.699219 C 12.367188 31.539062 12.367188 31.378906 12.386719 31.257812 C 12.445312 30.691406 12.445312 30.332031 12.445312 30.332031 C 12.445312 30.332031 12.0625 30.53125 11.539062 30.914062 C 11.398438 31.015625 11.257812 31.117188 11.117188 31.238281 C 10.957031 31.355469 10.816406 31.476562 10.675781 31.617188 C 10.371094 31.902344 10.070312 32.222656 9.769531 32.585938 C 9.628906 32.765625 9.488281 32.949219 9.34375 33.148438 C 9.285156 33.25 9.203125 33.351562 9.144531 33.453125 C 9.082031 33.550781 9.042969 33.652344 8.984375 33.753906 C 8.78125 34.15625 8.621094 34.597656 8.539062 35.042969 C 8.5 35.261719 8.480469 35.484375 8.480469 35.6875 C 8.5 35.90625 8.519531 36.109375 8.582031 36.308594 C 8.703125 36.753906 8.902344 37.136719 9.246094 37.457031 Z M 9.246094 37.457031 " fill-opacity="1" fill-rule="nonzero"/><path fill="#ffffff" d="M 5.722656 25.234375 C 5.5 24.792969 5.257812 24.371094 5.015625 23.988281 C 4.773438 23.585938 4.554688 23.222656 4.371094 22.921875 C 3.988281 22.316406 3.707031 21.914062 3.707031 21.914062 C 3.707031 21.914062 3.566406 22.398438 3.40625 23.140625 C 3.34375 23.523438 3.304688 23.96875 3.265625 24.449219 C 3.246094 24.691406 3.226562 24.933594 3.226562 25.195312 C 3.226562 25.457031 3.246094 25.71875 3.265625 25.980469 C 3.304688 26.503906 3.386719 27.027344 3.507812 27.53125 C 3.648438 28.035156 3.847656 28.5 4.089844 28.921875 C 4.574219 29.746094 5.339844 30.332031 6.34375 30.472656 C 6.488281 30.269531 6.566406 30.070312 6.648438 29.847656 C 6.726562 29.644531 6.789062 29.425781 6.808594 29.222656 C 6.867188 28.800781 6.847656 28.355469 6.75 27.914062 C 6.667969 27.472656 6.527344 27.027344 6.324219 26.585938 C 6.183594 26.140625 5.941406 25.679688 5.722656 25.234375 Z M 5.722656 25.234375 " fill-opacity="1" fill-rule="nonzero"/><path fill="#ffffff" d="M 11.199219 29.101562 C 11.5 28.800781 11.761719 28.476562 11.984375 28.117188 C 12.226562 27.773438 12.425781 27.410156 12.609375 27.046875 C 12.6875 26.867188 12.769531 26.6875 12.847656 26.523438 C 12.929688 26.34375 13.011719 26.183594 13.070312 26.023438 C 13.210938 25.699219 13.3125 25.398438 13.394531 25.136719 C 13.59375 24.613281 13.675781 24.269531 13.675781 24.269531 C 13.675781 24.269531 13.25 24.371094 12.648438 24.59375 C 12.023438 24.8125 11.257812 25.195312 10.511719 25.738281 C 10.332031 25.878906 10.132812 26.023438 9.96875 26.183594 C 9.808594 26.34375 9.648438 26.503906 9.488281 26.664062 C 9.183594 27.007812 8.902344 27.390625 8.722656 27.773438 C 8.558594 28.175781 8.460938 28.597656 8.460938 29 C 8.460938 29.203125 8.480469 29.425781 8.539062 29.625 C 8.601562 29.828125 8.703125 30.046875 8.820312 30.230469 C 9.828125 30.167969 10.574219 29.707031 11.199219 29.101562 Z M 11.199219 29.101562 " fill-opacity="1" fill-rule="nonzero"/><path fill="#ffffff" d="M 8.21875 22.578125 C 8.359375 22.398438 8.460938 22.214844 8.539062 22.015625 C 8.621094 21.8125 8.679688 21.613281 8.722656 21.410156 C 8.761719 21.210938 8.78125 20.988281 8.800781 20.765625 C 8.84375 20.324219 8.800781 19.859375 8.722656 19.378906 C 8.640625 18.894531 8.558594 18.410156 8.441406 17.949219 C 8.199219 16.980469 7.9375 16.074219 7.695312 15.390625 C 7.453125 14.707031 7.292969 14.261719 7.292969 14.261719 C 7.292969 14.261719 7.230469 14.363281 7.128906 14.566406 C 7.03125 14.765625 6.890625 15.027344 6.75 15.371094 C 6.425781 16.035156 6.105469 17 5.902344 18.027344 C 5.820312 18.550781 5.761719 19.074219 5.761719 19.578125 C 5.761719 19.839844 5.78125 20.082031 5.820312 20.34375 C 5.863281 20.585938 5.902344 20.828125 5.984375 21.070312 C 6.125 21.53125 6.324219 21.933594 6.628906 22.296875 C 6.929688 22.640625 7.3125 22.941406 7.773438 23.121094 C 7.957031 22.921875 8.097656 22.757812 8.21875 22.578125 Z M 8.21875 22.578125 " fill-opacity="1" fill-rule="nonzero"/><path fill="#ffffff" d="M 16.230469 18.914062 C 16.3125 18.773438 16.371094 18.691406 16.371094 18.691406 C 16.371094 18.691406 16.273438 18.691406 16.070312 18.691406 C 15.871094 18.691406 15.609375 18.710938 15.285156 18.753906 C 14.964844 18.792969 14.582031 18.855469 14.179688 18.953125 C 13.976562 18.996094 13.753906 19.054688 13.554688 19.117188 C 13.351562 19.175781 13.132812 19.257812 12.929688 19.335938 C 12.507812 19.496094 12.085938 19.699219 11.703125 19.960938 C 11.320312 20.222656 10.976562 20.503906 10.695312 20.847656 C 10.554688 21.007812 10.433594 21.1875 10.351562 21.371094 C 10.25 21.550781 10.191406 21.753906 10.132812 21.953125 C 10.070312 22.15625 10.050781 22.355469 10.050781 22.578125 C 10.070312 22.800781 10.109375 23.019531 10.171875 23.242188 C 10.675781 23.324219 11.136719 23.304688 11.558594 23.203125 C 11.984375 23.101562 12.386719 22.941406 12.769531 22.738281 C 12.949219 22.640625 13.132812 22.519531 13.292969 22.398438 C 13.371094 22.335938 13.453125 22.277344 13.535156 22.195312 C 13.613281 22.136719 13.695312 22.054688 13.773438 21.996094 C 14.097656 21.710938 14.378906 21.429688 14.621094 21.109375 C 14.882812 20.804688 15.125 20.503906 15.324219 20.222656 C 15.386719 20.140625 15.425781 20.082031 15.464844 20 C 15.527344 19.941406 15.566406 19.859375 15.609375 19.800781 C 15.707031 19.660156 15.789062 19.539062 15.871094 19.4375 C 16.03125 19.257812 16.152344 19.054688 16.230469 18.914062 Z M 16.230469 18.914062 " fill-opacity="1" fill-rule="nonzero"/><path fill="#ffffff" d="M 10.976562 16.355469 C 11.417969 16.136719 11.742188 15.851562 11.984375 15.511719 C 12.246094 15.1875 12.425781 14.785156 12.546875 14.363281 C 12.808594 13.519531 12.847656 12.511719 12.847656 11.542969 C 12.847656 11.304688 12.828125 11.0625 12.808594 10.820312 C 12.808594 10.578125 12.789062 10.355469 12.769531 10.136719 C 12.726562 9.691406 12.6875 9.269531 12.648438 8.90625 C 12.566406 8.203125 12.488281 7.71875 12.488281 7.71875 C 12.488281 7.71875 12.40625 7.820312 12.265625 7.960938 C 12.125 8.121094 11.921875 8.34375 11.722656 8.644531 C 11.5 8.945312 11.257812 9.289062 11.015625 9.691406 C 10.773438 10.09375 10.535156 10.539062 10.332031 11 C 10.132812 11.484375 9.96875 11.96875 9.847656 12.449219 C 9.75 12.953125 9.6875 13.4375 9.707031 13.921875 C 9.789062 14.886719 10.171875 15.753906 10.976562 16.355469 Z M 10.976562 16.355469 " fill-opacity="1" fill-rule="nonzero"/><path fill="#ffffff" d="M 18.0625 15.851562 C 18.386719 15.613281 18.707031 15.371094 18.96875 15.128906 C 19.230469 14.886719 19.492188 14.664062 19.695312 14.464844 C 19.894531 14.261719 20.058594 14.101562 20.179688 13.980469 C 20.300781 13.859375 20.359375 13.800781 20.359375 13.800781 C 20.359375 13.800781 19.9375 13.699219 19.273438 13.636719 C 18.949219 13.597656 18.566406 13.597656 18.144531 13.597656 C 17.722656 13.597656 17.277344 13.617188 16.835938 13.699219 C 15.929688 13.839844 15.023438 14.140625 14.320312 14.664062 C 13.976562 14.925781 13.695312 15.25 13.492188 15.613281 C 13.3125 15.972656 13.210938 16.398438 13.230469 16.859375 C 14.179688 17.261719 15.0625 17.242188 15.871094 17 C 16.273438 16.878906 16.675781 16.71875 17.039062 16.519531 C 17.398438 16.316406 17.742188 16.09375 18.0625 15.851562 Z M 18.0625 15.851562 " fill-opacity="1" fill-rule="nonzero"/><g clip-path="url(#456d925cbe)"><path fill="#ffffff" d="M 16.25 54.210938 C 18.929688 56.425781 22.171875 57.933594 25.375 59.222656 C 27.992188 60.269531 31.332031 62.003906 34.757812 63.613281 C 31.675781 64.558594 28.65625 65.34375 26.21875 65.769531 C 25.898438 65.828125 27.546875 67.480469 27.851562 67.398438 C 30.667969 66.554688 33.546875 65.507812 36.367188 64.378906 C 39.449219 65.789062 42.507812 66.976562 45.023438 67.398438 C 45.347656 67.460938 46.3125 65.769531 46.011719 65.707031 C 43.636719 65.304688 40.875 64.601562 37.996094 63.695312 C 42.75 61.699219 47.300781 59.445312 51.246094 57.3125 C 55.535156 54.976562 58.738281 51.671875 60.871094 47.265625 C 62.824219 43.195312 64.214844 38.6875 64.414062 34.15625 C 64.695312 27.875 62.582031 21.734375 59.320312 16.4375 C 58.355469 14.886719 57.285156 13.335938 56.097656 11.90625 C 56.199219 11.503906 56.21875 11.121094 56.140625 10.757812 C 56.058594 10.335938 55.898438 9.914062 55.636719 9.53125 C 55.132812 8.765625 54.328125 8.160156 53.5 7.699219 C 52.675781 7.234375 51.808594 6.953125 51.164062 6.8125 C 50.84375 6.730469 50.582031 6.691406 50.402344 6.652344 C 50.300781 6.652344 50.238281 6.632812 50.179688 6.632812 C 50.140625 6.632812 50.117188 6.632812 50.117188 6.632812 C 50.117188 6.632812 50.140625 6.652344 50.140625 6.691406 C 50.160156 6.730469 50.199219 6.792969 50.238281 6.875 C 50.320312 7.035156 50.441406 7.277344 50.601562 7.558594 C 50.902344 8.121094 51.328125 8.867188 51.808594 9.589844 C 52.050781 9.953125 52.332031 10.316406 52.617188 10.636719 C 52.757812 10.800781 52.917969 10.960938 53.078125 11.101562 C 53.238281 11.242188 53.402344 11.382812 53.5625 11.503906 C 53.902344 11.746094 54.265625 11.925781 54.691406 12.027344 C 54.992188 12.109375 55.332031 12.148438 55.675781 12.109375 C 57.953125 14.804688 59.824219 17.925781 61.234375 21.070312 C 63.046875 25.074219 64.011719 29.425781 63.910156 33.8125 C 63.789062 38.605469 62.199219 43.457031 60.046875 47.707031 C 58.375 51.007812 55.9375 53.707031 52.835938 55.71875 C 50.058594 57.511719 46.996094 58.863281 43.957031 60.191406 C 41.683594 61.175781 38.984375 62.183594 36.246094 63.089844 C 30.386719 61.136719 24.265625 58.480469 20.015625 56.082031 C 17.800781 54.835938 15.789062 53.304688 14.117188 51.351562 C 12.464844 49.417969 11.257812 47.121094 10.292969 44.765625 C 8.460938 40.316406 7.3125 35.707031 7.59375 30.855469 C 7.917969 25.214844 10.132812 19.820312 13.230469 15.128906 C 14.015625 13.921875 14.882812 12.734375 15.808594 11.605469 C 16.152344 11.625 16.453125 11.585938 16.753906 11.503906 C 17.15625 11.402344 17.519531 11.203125 17.882812 10.980469 C 18.0625 10.859375 18.226562 10.71875 18.367188 10.578125 C 18.527344 10.4375 18.667969 10.277344 18.828125 10.113281 C 19.109375 9.773438 19.394531 9.429688 19.632812 9.066406 C 20.117188 8.34375 20.539062 7.597656 20.84375 7.035156 C 21.003906 6.753906 21.125 6.511719 21.207031 6.351562 C 21.246094 6.269531 21.285156 6.207031 21.304688 6.167969 C 21.347656 6.167969 21.367188 6.148438 21.367188 6.148438 C 21.367188 6.148438 21.347656 6.148438 21.304688 6.148438 C 21.265625 6.148438 21.183594 6.167969 21.085938 6.167969 C 20.902344 6.1875 20.621094 6.25 20.300781 6.308594 C 19.65625 6.46875 18.789062 6.773438 17.964844 7.214844 C 17.136719 7.679688 16.332031 8.28125 15.828125 9.046875 C 15.566406 9.410156 15.40625 9.832031 15.324219 10.277344 C 15.265625 10.636719 15.265625 11.019531 15.367188 11.402344 C 13.191406 13.980469 11.398438 16.960938 9.988281 19.960938 C 8.257812 23.644531 7.230469 27.652344 7.070312 31.71875 C 6.890625 36.410156 8.15625 40.902344 9.929688 45.191406 C 11.339844 48.652344 13.371094 51.792969 16.25 54.210938 Z M 16.25 54.210938 " fill-opacity="1" fill-rule="nonzero"/></g><path fill="#ffffff" d="M 50.5625 62.707031 C 51.628906 62.527344 52.617188 62.183594 53.320312 61.882812 C 54.023438 61.578125 54.46875 61.316406 54.46875 61.316406 C 54.46875 61.316406 54.023438 61.136719 53.320312 60.914062 C 52.617188 60.671875 51.6875 60.390625 50.722656 60.148438 C 49.734375 59.910156 48.730469 59.746094 47.785156 59.789062 C 47.320312 59.808594 46.855469 59.886719 46.433594 60.050781 C 45.992188 60.210938 45.589844 60.433594 45.144531 60.773438 C 45.425781 61.761719 46.292969 62.363281 47.300781 62.648438 C 48.347656 62.929688 49.496094 62.910156 50.5625 62.707031 Z M 50.5625 62.707031 " fill-opacity="1" fill-rule="nonzero"/><path fill="#ffffff" d="M 45.304688 59.203125 C 45.75 59.125 46.152344 58.921875 46.515625 58.640625 C 47.238281 58.097656 47.804688 57.25 48.164062 56.40625 C 48.546875 55.558594 48.75 54.671875 48.871094 54.007812 C 48.929688 53.6875 48.949219 53.40625 48.972656 53.222656 C 48.992188 53.023438 48.992188 52.921875 48.992188 52.921875 C 48.992188 52.921875 48.648438 53.101562 48.144531 53.40625 C 47.640625 53.726562 46.996094 54.148438 46.355469 54.671875 C 45.710938 55.195312 45.085938 55.800781 44.640625 56.503906 C 44.199219 57.210938 43.917969 58.015625 43.957031 59.042969 C 44.402344 59.265625 44.882812 59.285156 45.304688 59.203125 Z M 45.304688 59.203125 " fill-opacity="1" fill-rule="nonzero"/><path fill="#ffffff" d="M 57.789062 55.457031 C 56.785156 55.5 55.738281 55.558594 54.871094 55.839844 C 53.984375 56.125 53.238281 56.585938 52.757812 57.453125 C 53.359375 58.277344 54.226562 58.660156 55.214844 58.699219 C 56.199219 58.742188 57.265625 58.457031 58.273438 58.015625 C 59.261719 57.574219 60.167969 56.949219 60.808594 56.425781 C 61.132812 56.164062 61.394531 55.921875 61.554688 55.761719 C 61.738281 55.601562 61.816406 55.480469 61.816406 55.480469 C 61.816406 55.480469 61.335938 55.480469 60.546875 55.457031 C 59.804688 55.457031 58.796875 55.4375 57.789062 55.457031 Z M 57.789062 55.457031 " fill-opacity="1" fill-rule="nonzero"/><path fill="#ffffff" d="M 51.046875 55.941406 C 52.011719 56.003906 52.796875 55.519531 53.339844 54.816406 C 53.902344 54.109375 54.226562 53.164062 54.367188 52.257812 C 54.507812 51.332031 54.46875 50.464844 54.347656 49.820312 C 54.308594 49.5 54.246094 49.238281 54.1875 49.054688 C 54.144531 48.875 54.105469 48.773438 54.105469 48.773438 C 54.105469 48.773438 54.046875 48.835938 53.945312 48.933594 C 53.84375 49.054688 53.683594 49.21875 53.523438 49.417969 C 53.160156 49.820312 52.675781 50.386719 52.191406 51.050781 C 51.710938 51.714844 51.246094 52.457031 50.984375 53.285156 C 50.722656 54.109375 50.640625 54.996094 51.046875 55.941406 Z M 51.046875 55.941406 " fill-opacity="1" fill-rule="nonzero"/><path fill="#ffffff" d="M 64.335938 50.929688 C 64.433594 50.808594 64.535156 50.6875 64.636719 50.566406 L 64.777344 50.386719 L 64.898438 50.222656 C 65.039062 50.023438 65.179688 49.820312 65.300781 49.640625 C 65.5625 49.257812 65.765625 48.875 65.945312 48.574219 C 66.125 48.25 66.265625 47.988281 66.347656 47.789062 C 66.449219 47.585938 66.488281 47.484375 66.488281 47.484375 C 66.488281 47.484375 66.046875 47.625 65.339844 47.828125 C 64.65625 48.050781 63.75 48.371094 62.863281 48.773438 C 62.644531 48.875 62.421875 48.996094 62.199219 49.117188 C 61.957031 49.257812 61.738281 49.378906 61.515625 49.519531 C 61.292969 49.660156 61.074219 49.78125 60.871094 49.921875 C 60.667969 50.0625 60.46875 50.203125 60.285156 50.34375 C 59.542969 50.929688 59 51.59375 58.757812 52.578125 C 59.582031 53.183594 60.527344 53.304688 61.515625 52.980469 C 62.523438 52.621094 63.507812 51.894531 64.335938 50.929688 Z M 64.335938 50.929688 " fill-opacity="1" fill-rule="nonzero"/><path fill="#ffffff" d="M 58.414062 46.820312 C 58.152344 45.914062 57.789062 45.089844 57.488281 44.503906 C 57.328125 44.203125 57.207031 43.980469 57.085938 43.800781 C 56.984375 43.640625 56.90625 43.539062 56.90625 43.539062 C 56.90625 43.539062 56.863281 43.640625 56.804688 43.800781 C 56.742188 43.960938 56.644531 44.183594 56.523438 44.464844 C 56.421875 44.746094 56.300781 45.089844 56.199219 45.453125 C 56.097656 45.8125 55.976562 46.277344 55.957031 46.558594 C 55.878906 47.203125 55.757812 47.988281 55.816406 48.792969 C 55.878906 49.597656 56.078125 50.464844 56.722656 51.269531 C 57.648438 51.050781 58.253906 50.363281 58.515625 49.519531 C 58.574219 49.296875 58.636719 49.097656 58.65625 48.855469 C 58.675781 48.632812 58.675781 48.390625 58.675781 48.171875 C 58.65625 47.949219 58.617188 47.707031 58.574219 47.503906 C 58.535156 47.285156 58.476562 47.0625 58.414062 46.820312 Z M 58.414062 46.820312 " fill-opacity="1" fill-rule="nonzero"/><path fill="#ffffff" d="M 68.703125 39.714844 C 68.765625 39.511719 68.785156 39.371094 68.785156 39.371094 C 68.785156 39.371094 68.382812 39.59375 67.714844 39.933594 C 67.074219 40.277344 66.246094 40.78125 65.441406 41.34375 C 64.617188 41.90625 63.8125 42.53125 63.285156 43.257812 C 63.167969 43.4375 63.023438 43.621094 62.925781 43.820312 C 62.824219 44.003906 62.722656 44.203125 62.664062 44.425781 C 62.542969 44.847656 62.5 45.289062 62.582031 45.773438 C 63.550781 46.054688 64.453125 45.835938 65.261719 45.3125 C 65.460938 45.191406 65.664062 45.027344 65.84375 44.867188 C 66.027344 44.707031 66.226562 44.527344 66.386719 44.34375 C 66.710938 43.960938 67.011719 43.539062 67.292969 43.097656 C 67.859375 42.230469 68.199219 41.285156 68.441406 40.558594 C 68.5625 40.238281 68.664062 39.933594 68.703125 39.714844 Z M 68.703125 39.714844 " fill-opacity="1" fill-rule="nonzero"/><path fill="#ffffff" d="M 60.265625 44.988281 C 60.648438 44.707031 60.929688 44.363281 61.132812 43.980469 C 61.234375 43.800781 61.292969 43.578125 61.355469 43.378906 C 61.414062 43.175781 61.433594 42.953125 61.433594 42.734375 C 61.433594 41.828125 61.171875 40.902344 60.789062 40.054688 C 60.367188 39.210938 59.84375 38.484375 59.441406 37.980469 C 59.238281 37.71875 59.058594 37.519531 58.917969 37.378906 C 58.777344 37.238281 58.695312 37.15625 58.695312 37.15625 C 58.695312 37.15625 58.675781 37.257812 58.65625 37.417969 C 58.617188 37.578125 58.574219 37.820312 58.515625 38.101562 C 58.414062 38.6875 58.355469 39.472656 58.3125 40.296875 C 58.292969 40.71875 58.3125 41.144531 58.375 41.585938 C 58.394531 41.707031 58.414062 41.808594 58.414062 41.90625 C 58.433594 42.007812 58.433594 42.128906 58.453125 42.230469 C 58.496094 42.453125 58.554688 42.652344 58.617188 42.855469 C 58.859375 43.71875 59.382812 44.464844 60.265625 44.988281 Z M 60.265625 44.988281 " fill-opacity="1" fill-rule="nonzero"/><g clip-path="url(#b28a94e4ee)"><path fill="#ffffff" d="M 66.527344 33.550781 C 66.367188 33.734375 66.207031 33.914062 66.046875 34.117188 C 65.882812 34.296875 65.742188 34.5 65.582031 34.699219 C 65.28125 35.082031 65.019531 35.484375 64.835938 35.90625 C 64.738281 36.109375 64.675781 36.332031 64.617188 36.53125 C 64.554688 36.734375 64.496094 36.953125 64.476562 37.15625 C 64.433594 37.578125 64.476562 38.023438 64.65625 38.484375 C 65.664062 38.585938 66.507812 38.183594 67.214844 37.519531 C 67.394531 37.359375 67.554688 37.175781 67.714844 36.976562 C 67.859375 36.773438 68 36.550781 68.121094 36.332031 C 68.359375 35.886719 68.582031 35.382812 68.765625 34.902344 C 68.863281 34.660156 68.925781 34.398438 68.984375 34.15625 C 69.046875 33.914062 69.085938 33.671875 69.144531 33.429688 C 69.226562 32.949219 69.308594 32.523438 69.328125 32.140625 C 69.367188 31.378906 69.367188 30.875 69.367188 30.875 C 69.367188 30.875 69.003906 31.175781 68.460938 31.679688 C 67.9375 32.164062 67.191406 32.828125 66.527344 33.550781 Z M 66.527344 33.550781 " fill-opacity="1" fill-rule="nonzero"/></g><path fill="#ffffff" d="M 62.882812 36.8125 C 62.945312 36.613281 62.964844 36.390625 62.984375 36.191406 C 62.984375 35.96875 62.964844 35.765625 62.925781 35.546875 C 62.84375 35.101562 62.683594 34.679688 62.480469 34.277344 C 62.441406 34.175781 62.382812 34.074219 62.320312 33.976562 C 62.261719 33.875 62.199219 33.773438 62.121094 33.671875 C 61.976562 33.472656 61.835938 33.289062 61.695312 33.109375 C 61.394531 32.746094 61.09375 32.425781 60.789062 32.140625 C 60.648438 32 60.488281 31.878906 60.347656 31.761719 C 60.207031 31.640625 60.046875 31.539062 59.925781 31.4375 C 59.382812 31.054688 59.019531 30.855469 59.019531 30.855469 C 59.019531 30.855469 59.019531 31.214844 59.078125 31.78125 C 59.097656 31.921875 59.097656 32.0625 59.121094 32.242188 C 59.140625 32.40625 59.140625 32.566406 59.160156 32.746094 C 59.199219 33.109375 59.28125 33.492188 59.359375 33.894531 C 59.421875 34.296875 59.523438 34.699219 59.664062 35.101562 C 59.742188 35.304688 59.824219 35.503906 59.90625 35.707031 C 59.984375 35.90625 60.085938 36.089844 60.1875 36.269531 C 60.609375 37.015625 61.253906 37.640625 62.21875 37.980469 C 62.5625 37.597656 62.761719 37.214844 62.882812 36.8125 Z M 62.882812 36.8125 " fill-opacity="1" fill-rule="nonzero"/><path fill="#ffffff" d="M 64.695312 28.398438 C 64.597656 28.839844 64.554688 29.261719 64.636719 29.6875 C 64.675781 29.90625 64.738281 30.109375 64.816406 30.308594 C 64.898438 30.511719 65 30.734375 65.121094 30.933594 C 66.125 30.792969 66.890625 30.210938 67.375 29.382812 C 67.617188 28.960938 67.816406 28.5 67.957031 27.996094 C 68.097656 27.492188 68.160156 26.96875 68.199219 26.445312 C 68.21875 26.183594 68.242188 25.921875 68.242188 25.660156 C 68.242188 25.398438 68.21875 25.15625 68.199219 24.914062 C 68.160156 24.429688 68.121094 23.988281 68.058594 23.605469 C 67.898438 22.859375 67.757812 22.378906 67.757812 22.378906 C 67.757812 22.378906 67.476562 22.78125 67.09375 23.382812 C 66.910156 23.6875 66.691406 24.046875 66.449219 24.449219 C 66.207031 24.855469 65.964844 25.277344 65.742188 25.699219 C 65.523438 26.121094 65.300781 26.585938 65.097656 27.027344 C 64.917969 27.511719 64.777344 27.953125 64.695312 28.398438 Z M 64.695312 28.398438 " fill-opacity="1" fill-rule="nonzero"/><path fill="#ffffff" d="M 62.761719 28.257812 C 62.582031 27.855469 62.300781 27.492188 62 27.148438 C 61.859375 26.988281 61.695312 26.808594 61.515625 26.664062 C 61.355469 26.503906 61.152344 26.363281 60.972656 26.242188 C 60.226562 25.699219 59.460938 25.316406 58.835938 25.09375 C 58.214844 24.875 57.808594 24.773438 57.808594 24.773438 C 57.808594 24.773438 57.890625 25.117188 58.09375 25.640625 C 58.171875 25.902344 58.273438 26.203125 58.414062 26.523438 C 58.476562 26.6875 58.554688 26.847656 58.636719 27.027344 C 58.714844 27.210938 58.777344 27.371094 58.878906 27.550781 C 59.039062 27.914062 59.261719 28.277344 59.5 28.617188 C 59.722656 28.960938 59.984375 29.304688 60.285156 29.605469 C 60.910156 30.191406 61.636719 30.671875 62.664062 30.753906 C 62.785156 30.550781 62.882812 30.351562 62.945312 30.148438 C 63.003906 29.949219 63.023438 29.726562 63.023438 29.523438 C 63.023438 29.082031 62.945312 28.660156 62.761719 28.257812 Z M 62.761719 28.257812 " fill-opacity="1" fill-rule="nonzero"/><path fill="#ffffff" d="M 64.152344 14.707031 C 64.152344 14.707031 63.992188 15.148438 63.75 15.832031 C 63.507812 16.519531 63.246094 17.425781 63.003906 18.390625 C 62.882812 18.875 62.804688 19.355469 62.722656 19.820312 C 62.644531 20.304688 62.621094 20.765625 62.644531 21.210938 C 62.664062 21.429688 62.683594 21.652344 62.722656 21.855469 C 62.761719 22.074219 62.824219 22.277344 62.90625 22.457031 C 62.984375 22.660156 63.105469 22.839844 63.226562 23.019531 C 63.347656 23.203125 63.488281 23.363281 63.667969 23.546875 C 64.132812 23.34375 64.515625 23.0625 64.816406 22.71875 C 65.121094 22.355469 65.320312 21.953125 65.460938 21.492188 C 65.523438 21.269531 65.582031 21.027344 65.621094 20.765625 C 65.664062 20.523438 65.683594 20.261719 65.683594 20 C 65.683594 19.496094 65.621094 18.953125 65.542969 18.449219 C 65.339844 17.445312 65.019531 16.476562 64.695312 15.792969 C 64.535156 15.449219 64.414062 15.167969 64.3125 14.988281 C 64.214844 14.804688 64.152344 14.707031 64.152344 14.707031 Z M 64.152344 14.707031 " fill-opacity="1" fill-rule="nonzero"/><path fill="#ffffff" d="M 61.132812 21.875 C 61.03125 21.691406 60.929688 21.511719 60.789062 21.351562 C 60.507812 21.007812 60.167969 20.726562 59.785156 20.464844 C 59.402344 20.203125 58.976562 20 58.554688 19.839844 C 58.332031 19.757812 58.132812 19.679688 57.929688 19.617188 C 57.730469 19.558594 57.507812 19.496094 57.308594 19.457031 C 56.90625 19.355469 56.523438 19.296875 56.199219 19.257812 C 55.878906 19.214844 55.617188 19.195312 55.414062 19.195312 C 55.214844 19.195312 55.113281 19.195312 55.113281 19.195312 C 55.113281 19.195312 55.152344 19.277344 55.253906 19.417969 C 55.332031 19.558594 55.453125 19.757812 55.59375 19.980469 C 55.675781 20.101562 55.757812 20.222656 55.855469 20.34375 C 55.898438 20.402344 55.957031 20.484375 56 20.542969 C 56.039062 20.605469 56.097656 20.6875 56.140625 20.765625 C 56.339844 21.046875 56.582031 21.351562 56.863281 21.652344 C 57.105469 21.953125 57.386719 22.257812 57.710938 22.519531 C 57.789062 22.597656 57.871094 22.660156 57.953125 22.71875 C 58.03125 22.78125 58.113281 22.839844 58.191406 22.921875 C 58.355469 23.042969 58.535156 23.164062 58.714844 23.261719 C 59.078125 23.464844 59.5 23.625 59.925781 23.726562 C 60.347656 23.828125 60.808594 23.847656 61.3125 23.765625 C 61.375 23.546875 61.433594 23.324219 61.433594 23.101562 C 61.433594 22.902344 61.414062 22.679688 61.355469 22.476562 C 61.292969 22.257812 61.234375 22.054688 61.132812 21.875 Z M 61.132812 21.875 " fill-opacity="1" fill-rule="nonzero"/><path fill="#ffffff" d="M 60.488281 16.839844 C 61.292969 16.234375 61.675781 15.371094 61.738281 14.425781 C 61.757812 13.960938 61.714844 13.457031 61.597656 12.953125 C 61.496094 12.449219 61.3125 11.96875 61.113281 11.503906 C 60.910156 11.042969 60.667969 10.597656 60.429688 10.195312 C 60.1875 9.792969 59.945312 9.449219 59.722656 9.148438 C 59.5 8.847656 59.320312 8.625 59.179688 8.464844 C 59.039062 8.304688 58.957031 8.222656 58.957031 8.222656 C 58.957031 8.222656 58.878906 8.683594 58.796875 9.390625 C 58.757812 9.753906 58.714844 10.175781 58.675781 10.617188 C 58.65625 10.839844 58.636719 11.082031 58.636719 11.304688 C 58.617188 11.542969 58.617188 11.785156 58.617188 12.027344 C 58.617188 12.996094 58.65625 14 58.917969 14.847656 C 59.039062 15.269531 59.21875 15.671875 59.480469 15.996094 C 59.742188 16.335938 60.066406 16.617188 60.488281 16.839844 Z M 60.488281 16.839844 " fill-opacity="1" fill-rule="nonzero"/><path fill="#ffffff" d="M 57.167969 15.148438 C 56.460938 14.625 55.554688 14.324219 54.648438 14.183594 C 54.207031 14.101562 53.742188 14.082031 53.339844 14.082031 C 52.917969 14.082031 52.535156 14.101562 52.214844 14.121094 C 51.546875 14.183594 51.125 14.28125 51.125 14.28125 C 51.125 14.28125 51.1875 14.34375 51.308594 14.464844 C 51.425781 14.585938 51.589844 14.746094 51.789062 14.949219 C 51.992188 15.148438 52.234375 15.371094 52.515625 15.613281 C 52.777344 15.851562 53.097656 16.09375 53.421875 16.335938 C 53.742188 16.578125 54.085938 16.800781 54.46875 17 C 54.832031 17.203125 55.214844 17.382812 55.636719 17.484375 C 56.441406 17.726562 57.328125 17.765625 58.273438 17.34375 C 58.292969 16.878906 58.191406 16.457031 58.011719 16.09375 C 57.789062 15.710938 57.507812 15.410156 57.167969 15.148438 Z M 57.167969 15.148438 " fill-opacity="1" fill-rule="nonzero"/><g fill="#ffffff" fill-opacity="1"><g transform="translate(18.354077, 30.13546)"><g><path d="M 6.0625 -2.890625 C 6.0625 -2.453125 5.992188 -2.050781 5.859375 -1.6875 C 5.722656 -1.332031 5.53125 -1.023438 5.28125 -0.765625 C 5.03125 -0.503906 4.726562 -0.300781 4.375 -0.15625 C 4.03125 -0.0078125 3.644531 0.0625 3.21875 0.0625 C 2.789062 0.0625 2.398438 -0.0078125 2.046875 -0.15625 C 1.703125 -0.300781 1.40625 -0.503906 1.15625 -0.765625 C 0.90625 -1.023438 0.710938 -1.332031 0.578125 -1.6875 C 0.441406 -2.050781 0.375 -2.453125 0.375 -2.890625 C 0.375 -3.316406 0.441406 -3.710938 0.578125 -4.078125 C 0.710938 -4.441406 0.90625 -4.753906 1.15625 -5.015625 C 1.40625 -5.273438 1.703125 -5.476562 2.046875 -5.625 C 2.398438 -5.769531 2.789062 -5.84375 3.21875 -5.84375 C 3.644531 -5.84375 4.03125 -5.769531 4.375 -5.625 C 4.726562 -5.476562 5.03125 -5.273438 5.28125 -5.015625 C 5.53125 -4.753906 5.722656 -4.441406 5.859375 -4.078125 C 5.992188 -3.710938 6.0625 -3.316406 6.0625 -2.890625 Z M 5.265625 -2.890625 C 5.265625 -3.242188 5.210938 -3.5625 5.109375 -3.84375 C 5.015625 -4.125 4.878906 -4.359375 4.703125 -4.546875 C 4.523438 -4.742188 4.3125 -4.894531 4.0625 -5 C 3.8125 -5.101562 3.53125 -5.15625 3.21875 -5.15625 C 2.90625 -5.15625 2.625 -5.101562 2.375 -5 C 2.125 -4.894531 1.90625 -4.742188 1.71875 -4.546875 C 1.539062 -4.359375 1.40625 -4.125 1.3125 -3.84375 C 1.21875 -3.5625 1.171875 -3.242188 1.171875 -2.890625 C 1.171875 -2.535156 1.21875 -2.21875 1.3125 -1.9375 C 1.40625 -1.65625 1.539062 -1.414062 1.71875 -1.21875 C 1.90625 -1.019531 2.125 -0.867188 2.375 -0.765625 C 2.625 -0.660156 2.90625 -0.609375 3.21875 -0.609375 C 3.53125 -0.609375 3.8125 -0.660156 4.0625 -0.765625 C 4.3125 -0.867188 4.523438 -1.019531 4.703125 -1.21875 C 4.878906 -1.414062 5.015625 -1.65625 5.109375 -1.9375 C 5.210938 -2.21875 5.265625 -2.535156 5.265625 -2.890625 Z M 5.265625 -2.890625 "/></g></g></g><g fill="#ffffff" fill-opacity="1"><g transform="translate(25.159531, 30.13546)"><g><path d="M 4.265625 -5.78125 L 4.265625 -5.140625 L 1.484375 -5.140625 L 1.484375 -3.125 L 3.859375 -3.125 L 3.859375 -2.484375 L 1.484375 -2.484375 L 1.484375 0 L 0.703125 0 L 0.703125 -5.78125 Z M 4.265625 -5.78125 "/></g></g></g><g fill="#ffffff" fill-opacity="1"><g transform="translate(30.096545, 30.13546)"><g><path d="M 4.265625 -5.78125 L 4.265625 -5.140625 L 1.484375 -5.140625 L 1.484375 -3.125 L 3.859375 -3.125 L 3.859375 -2.484375 L 1.484375 -2.484375 L 1.484375 0 L 0.703125 0 L 0.703125 -5.78125 Z M 4.265625 -5.78125 "/></g></g></g><g fill="#ffffff" fill-opacity="1"><g transform="translate(35.033559, 30.13546)"><g><path d="M 1.625 0 L 0.84375 0 L 0.84375 -5.78125 L 1.625 -5.78125 Z M 1.625 0 "/></g></g></g><g fill="#ffffff" fill-opacity="1"><g transform="translate(37.884691, 30.13546)"><g><path d="M 4.765625 -1.1875 C 4.816406 -1.1875 4.859375 -1.171875 4.890625 -1.140625 L 5.203125 -0.8125 C 4.960938 -0.53125 4.671875 -0.3125 4.328125 -0.15625 C 3.992188 -0.0078125 3.585938 0.0625 3.109375 0.0625 C 2.691406 0.0625 2.3125 -0.00390625 1.96875 -0.140625 C 1.632812 -0.285156 1.347656 -0.488281 1.109375 -0.75 C 0.878906 -1.007812 0.695312 -1.320312 0.5625 -1.6875 C 0.425781 -2.050781 0.359375 -2.453125 0.359375 -2.890625 C 0.359375 -3.328125 0.425781 -3.722656 0.5625 -4.078125 C 0.707031 -4.441406 0.90625 -4.753906 1.15625 -5.015625 C 1.414062 -5.273438 1.722656 -5.476562 2.078125 -5.625 C 2.441406 -5.769531 2.835938 -5.84375 3.265625 -5.84375 C 3.691406 -5.84375 4.054688 -5.773438 4.359375 -5.640625 C 4.671875 -5.515625 4.945312 -5.335938 5.1875 -5.109375 L 4.9375 -4.75 C 4.914062 -4.71875 4.890625 -4.691406 4.859375 -4.671875 C 4.835938 -4.660156 4.804688 -4.65625 4.765625 -4.65625 C 4.722656 -4.65625 4.679688 -4.664062 4.640625 -4.6875 C 4.609375 -4.71875 4.566406 -4.75 4.515625 -4.78125 C 4.460938 -4.820312 4.398438 -4.863281 4.328125 -4.90625 C 4.253906 -4.945312 4.164062 -4.988281 4.0625 -5.03125 C 3.96875 -5.070312 3.851562 -5.101562 3.71875 -5.125 C 3.582031 -5.144531 3.429688 -5.15625 3.265625 -5.15625 C 2.953125 -5.15625 2.664062 -5.101562 2.40625 -5 C 2.15625 -4.894531 1.9375 -4.742188 1.75 -4.546875 C 1.5625 -4.347656 1.414062 -4.109375 1.3125 -3.828125 C 1.207031 -3.546875 1.15625 -3.234375 1.15625 -2.890625 C 1.15625 -2.523438 1.207031 -2.203125 1.3125 -1.921875 C 1.414062 -1.640625 1.554688 -1.398438 1.734375 -1.203125 C 1.910156 -1.015625 2.117188 -0.867188 2.359375 -0.765625 C 2.609375 -0.660156 2.878906 -0.609375 3.171875 -0.609375 C 3.335938 -0.609375 3.488281 -0.617188 3.625 -0.640625 C 3.757812 -0.660156 3.882812 -0.691406 4 -0.734375 C 4.125 -0.773438 4.234375 -0.828125 4.328125 -0.890625 C 4.429688 -0.960938 4.535156 -1.039062 4.640625 -1.125 C 4.679688 -1.164062 4.722656 -1.1875 4.765625 -1.1875 Z M 4.765625 -1.1875 "/></g></g></g><g fill="#ffffff" fill-opacity="1"><g transform="translate(43.780087, 30.13546)"><g><path d="M 1.625 0 L 0.84375 0 L 0.84375 -5.78125 L 1.625 -5.78125 Z M 1.625 0 "/></g></g></g><g fill="#ffffff" fill-opacity="1"><g transform="translate(46.63122, 30.13546)"><g><path d="M 5.453125 0 L 4.84375 0 C 4.78125 0 4.722656 -0.015625 4.671875 -0.046875 C 4.628906 -0.0859375 4.597656 -0.132812 4.578125 -0.1875 L 4.046875 -1.578125 L 1.453125 -1.578125 L 0.90625 -0.1875 C 0.894531 -0.132812 0.863281 -0.0859375 0.8125 -0.046875 C 0.769531 -0.015625 0.710938 0 0.640625 0 L 0.046875 0 L 2.34375 -5.78125 L 3.140625 -5.78125 Z M 1.671875 -2.140625 L 3.828125 -2.140625 L 2.921875 -4.5 C 2.859375 -4.644531 2.800781 -4.820312 2.75 -5.03125 C 2.71875 -4.925781 2.6875 -4.828125 2.65625 -4.734375 C 2.625 -4.640625 2.597656 -4.554688 2.578125 -4.484375 Z M 1.671875 -2.140625 "/></g></g></g><g fill="#ffffff" fill-opacity="1"><g transform="translate(52.48635, 30.13546)"><g><path d="M 1.484375 -0.65625 L 3.984375 -0.65625 L 3.984375 0 L 0.703125 0 L 0.703125 -5.78125 L 1.484375 -5.78125 Z M 1.484375 -0.65625 "/></g></g></g><g fill="#ffffff" fill-opacity="1"><g transform="translate(17.239975, 41.616381)"><g><path d="M 1.5625 -2.15625 L 1.5625 0 L 0.78125 0 L 0.78125 -5.78125 L 2.484375 -5.78125 C 2.847656 -5.78125 3.164062 -5.734375 3.4375 -5.640625 C 3.707031 -5.554688 3.929688 -5.4375 4.109375 -5.28125 C 4.285156 -5.132812 4.414062 -4.945312 4.5 -4.71875 C 4.59375 -4.5 4.640625 -4.253906 4.640625 -3.984375 C 4.640625 -3.710938 4.59375 -3.46875 4.5 -3.25 C 4.40625 -3.03125 4.265625 -2.835938 4.078125 -2.671875 C 3.898438 -2.515625 3.675781 -2.390625 3.40625 -2.296875 C 3.132812 -2.203125 2.828125 -2.15625 2.484375 -2.15625 Z M 1.5625 -2.78125 L 2.484375 -2.78125 C 2.710938 -2.78125 2.910156 -2.804688 3.078125 -2.859375 C 3.242188 -2.921875 3.382812 -3.003906 3.5 -3.109375 C 3.625 -3.222656 3.710938 -3.351562 3.765625 -3.5 C 3.828125 -3.644531 3.859375 -3.804688 3.859375 -3.984375 C 3.859375 -4.359375 3.742188 -4.644531 3.515625 -4.84375 C 3.285156 -5.050781 2.941406 -5.15625 2.484375 -5.15625 L 1.5625 -5.15625 Z M 1.5625 -2.78125 "/></g></g></g><g fill="#ffffff" fill-opacity="1"><g transform="translate(22.5394, 41.616381)"><g><path d="M 5.453125 0 L 4.84375 0 C 4.78125 0 4.722656 -0.015625 4.671875 -0.046875 C 4.628906 -0.0859375 4.597656 -0.132812 4.578125 -0.1875 L 4.046875 -1.578125 L 1.453125 -1.578125 L 0.90625 -0.1875 C 0.894531 -0.132812 0.863281 -0.0859375 0.8125 -0.046875 C 0.769531 -0.015625 0.710938 0 0.640625 0 L 0.046875 0 L 2.34375 -5.78125 L 3.140625 -5.78125 Z M 1.671875 -2.140625 L 3.828125 -2.140625 L 2.921875 -4.5 C 2.859375 -4.644531 2.800781 -4.820312 2.75 -5.03125 C 2.71875 -4.925781 2.6875 -4.828125 2.65625 -4.734375 C 2.625 -4.640625 2.597656 -4.554688 2.578125 -4.484375 Z M 1.671875 -2.140625 "/></g></g></g><g fill="#ffffff" fill-opacity="1"><g transform="translate(28.394531, 41.616381)"><g><path d="M 1.5625 -2.40625 L 1.5625 0 L 0.78125 0 L 0.78125 -5.78125 L 2.421875 -5.78125 C 2.785156 -5.78125 3.097656 -5.742188 3.359375 -5.671875 C 3.628906 -5.597656 3.847656 -5.488281 4.015625 -5.34375 C 4.191406 -5.207031 4.320312 -5.039062 4.40625 -4.84375 C 4.488281 -4.644531 4.53125 -4.421875 4.53125 -4.171875 C 4.53125 -3.972656 4.5 -3.785156 4.4375 -3.609375 C 4.375 -3.429688 4.28125 -3.269531 4.15625 -3.125 C 4.03125 -2.988281 3.878906 -2.867188 3.703125 -2.765625 C 3.523438 -2.660156 3.328125 -2.585938 3.109375 -2.546875 C 3.203125 -2.484375 3.285156 -2.398438 3.359375 -2.296875 L 5.046875 0 L 4.359375 0 C 4.210938 0 4.109375 -0.0546875 4.046875 -0.171875 L 2.546875 -2.234375 C 2.492188 -2.296875 2.441406 -2.335938 2.390625 -2.359375 C 2.335938 -2.390625 2.257812 -2.40625 2.15625 -2.40625 Z M 1.5625 -2.984375 L 2.375 -2.984375 C 2.601562 -2.984375 2.800781 -3.007812 2.96875 -3.0625 C 3.144531 -3.113281 3.289062 -3.191406 3.40625 -3.296875 C 3.53125 -3.398438 3.617188 -3.519531 3.671875 -3.65625 C 3.734375 -3.789062 3.765625 -3.945312 3.765625 -4.125 C 3.765625 -4.46875 3.648438 -4.722656 3.421875 -4.890625 C 3.203125 -5.066406 2.867188 -5.15625 2.421875 -5.15625 L 1.5625 -5.15625 Z M 1.5625 -2.984375 "/></g></g></g><g fill="#ffffff" fill-opacity="1"><g transform="translate(33.95973, 41.616381)"><g><path d="M 4.640625 -5.78125 L 4.640625 -5.125 L 2.765625 -5.125 L 2.765625 0 L 1.984375 0 L 1.984375 -5.125 L 0.109375 -5.125 L 0.109375 -5.78125 Z M 4.640625 -5.78125 "/></g></g></g><g fill="#ffffff" fill-opacity="1"><g transform="translate(39.090038, 41.616381)"><g><path d="M 1.109375 -5.78125 C 1.171875 -5.78125 1.21875 -5.769531 1.25 -5.75 C 1.289062 -5.726562 1.332031 -5.691406 1.375 -5.640625 L 4.71875 -1.296875 C 4.707031 -1.359375 4.703125 -1.421875 4.703125 -1.484375 C 4.703125 -1.554688 4.703125 -1.625 4.703125 -1.6875 L 4.703125 -5.78125 L 5.390625 -5.78125 L 5.390625 0 L 4.984375 0 C 4.921875 0 4.867188 -0.0078125 4.828125 -0.03125 C 4.785156 -0.0507812 4.75 -0.0859375 4.71875 -0.140625 L 1.375 -4.484375 C 1.375 -4.421875 1.375 -4.359375 1.375 -4.296875 C 1.382812 -4.234375 1.390625 -4.171875 1.390625 -4.109375 L 1.390625 0 L 0.703125 0 L 0.703125 -5.78125 Z M 1.109375 -5.78125 "/></g></g></g><g fill="#ffffff" fill-opacity="1"><g transform="translate(45.557237, 41.616381)"><g><path d="M 4.265625 -5.78125 L 4.265625 -5.140625 L 1.484375 -5.140625 L 1.484375 -3.21875 L 3.734375 -3.21875 L 3.734375 -2.609375 L 1.484375 -2.609375 L 1.484375 -0.640625 L 4.265625 -0.640625 L 4.265625 0 L 0.703125 0 L 0.703125 -5.78125 Z M 4.265625 -5.78125 "/></g></g></g><g fill="#ffffff" fill-opacity="1"><g transform="translate(50.615054, 41.616381)"><g><path d="M 1.5625 -2.40625 L 1.5625 0 L 0.78125 0 L 0.78125 -5.78125 L 2.421875 -5.78125 C 2.785156 -5.78125 3.097656 -5.742188 3.359375 -5.671875 C 3.628906 -5.597656 3.847656 -5.488281 4.015625 -5.34375 C 4.191406 -5.207031 4.320312 -5.039062 4.40625 -4.84375 C 4.488281 -4.644531 4.53125 -4.421875 4.53125 -4.171875 C 4.53125 -3.972656 4.5 -3.785156 4.4375 -3.609375 C 4.375 -3.429688 4.28125 -3.269531 4.15625 -3.125 C 4.03125 -2.988281 3.878906 -2.867188 3.703125 -2.765625 C 3.523438 -2.660156 3.328125 -2.585938 3.109375 -2.546875 C 3.203125 -2.484375 3.285156 -2.398438 3.359375 -2.296875 L 5.046875 0 L 4.359375 0 C 4.210938 0 4.109375 -0.0546875 4.046875 -0.171875 L 2.546875 -2.234375 C 2.492188 -2.296875 2.441406 -2.335938 2.390625 -2.359375 C 2.335938 -2.390625 2.257812 -2.40625 2.15625 -2.40625 Z M 1.5625 -2.984375 L 2.375 -2.984375 C 2.601562 -2.984375 2.800781 -3.007812 2.96875 -3.0625 C 3.144531 -3.113281 3.289062 -3.191406 3.40625 -3.296875 C 3.53125 -3.398438 3.617188 -3.519531 3.671875 -3.65625 C 3.734375 -3.789062 3.765625 -3.945312 3.765625 -4.125 C 3.765625 -4.46875 3.648438 -4.722656 3.421875 -4.890625 C 3.203125 -5.066406 2.867188 -5.15625 2.421875 -5.15625 L 1.5625 -5.15625 Z M 1.5625 -2.984375 "/></g></g></g><g fill="#ffffff" fill-opacity="1"><g transform="translate(56.186355, 41.616381)"><g/></g></g></svg>